<?xml version="1.0" encoding="UTF-8"?>
<svg version="1.1" xmlns="http://www.w3.org/2000/svg" width="1437" height="902">
<path d="M0 0 C474.21 0 948.42 0 1437 0 C1437 297.66 1437 595.32 1437 902 C962.79 902 488.58 902 0 902 C0 604.34 0 306.68 0 0 Z " fill="#FEFEFE" transform="translate(0,0)"/>
<path d="M0 0 C61.05 0 122.1 0 185 0 C190.79860422 20.87497518 190.79860422 20.87497518 193.38525391 31.06054688 C193.58548157 31.8480835 193.78570923 32.63562012 193.99200439 33.44702148 C194.20089294 34.26887939 194.40978149 35.0907373 194.625 35.9375 C195.08111575 37.7259374 195.53733799 39.51434764 195.99365234 41.30273438 C199.21763665 53.94968585 202.42055963 66.60199198 205.625 79.25390625 C205.82901806 80.05938337 206.03303612 80.8648605 206.24323654 81.69474602 C208.30379257 89.83022329 210.36379976 97.96583809 212.42084694 106.10220337 C213.39728552 109.96408701 214.37430476 113.82582358 215.3515625 117.6875 C215.5429417 118.44386875 215.73432091 119.2002375 215.93149948 119.97952652 C218.09039171 128.50871656 220.26151029 137.03460273 222.45703125 145.55444336 C222.65894766 146.33814615 222.86086407 147.12184895 223.06889915 147.92930031 C224.02630102 151.64355958 224.98545534 155.357354 225.94741821 159.07043457 C228.8744589 170.39007109 231.61627861 181.74827484 234.296875 193.12890625 C235.53648695 198.26649309 236.92167442 203.34918131 238.359375 208.43359375 C241.62498371 220.01176676 244.38841643 231.70936974 247.19775391 243.40478516 C250.58828509 257.49724971 250.58828509 257.49724971 254.35546875 271.4921875 C257.93055461 284.10135456 261.07204008 296.82674349 264.28329086 309.53227234 C264.99760239 312.35697696 265.71355579 315.18126439 266.42950535 318.0055542 C270.52077544 334.14565474 274.58887905 350.29138978 278.60766602 366.44970703 C280.46503332 373.90562694 282.38128124 381.34345745 284.35253906 388.77001953 C287.41396038 400.303807 290.22188976 411.89537755 293 423.5 C296.12156445 436.5301887 299.30307239 449.52273143 302.875 462.4375 C305.39780154 471.5599951 307.64320152 480.73132765 309.81542969 489.94287109 C311.29741103 496.1872511 312.87658525 502.38747859 314.625 508.5625 C316.24149591 514.27842955 317.83058801 519.99743868 319.3125 525.75 C319.63863281 527.00296875 319.96476562 528.2559375 320.30078125 529.546875 C320.96160298 532.8103745 321.13736626 535.68285912 321 539 C321.99 539 322.98 539 324 539 C324.11564301 538.32172653 324.23128601 537.64345306 324.35043335 536.94462585 C325.47114954 530.55520254 326.83927034 524.29464208 328.4765625 518.01953125 C328.71866959 517.07758911 328.96077667 516.13564697 329.21022034 515.16516113 C329.73584886 513.12098237 330.26310892 511.07722257 330.7918396 509.03384399 C332.25438144 503.37905005 333.70296199 497.72067875 335.15234375 492.0625 C335.61550743 490.25571526 335.61550743 490.25571526 336.08802795 488.41242981 C339.6709286 474.414825 343.17400828 460.39736739 346.67201996 446.37835312 C347.18821707 444.30962627 347.70458888 442.2409431 348.2210083 440.17227173 C349.88171875 433.51951152 351.54155836 426.86653462 353.20068359 420.21337891 C355.42743695 411.28473793 357.65933666 402.35738658 359.8921814 393.43026733 C360.86852674 389.52650363 361.84440377 385.62262287 362.8203125 381.71875 C363.18521897 380.25911399 363.5501278 378.79947856 363.91503906 377.33984375 C364.09345337 376.62618652 364.27186768 375.9125293 364.45568848 375.17724609 C371.2109375 348.15625 371.2109375 348.15625 372.09057617 344.64208984 C372.73929034 342.04409845 373.38531853 339.44553424 374.02856445 336.84619141 C375.7279792 329.99082449 377.46796788 323.15856421 379.4375 316.375 C381.3396547 309.69133611 382.94566703 302.97376058 384.4375 296.1875 C386.24230373 287.98696324 388.38996156 279.95322376 390.76708984 271.90185547 C392.87423046 264.67099336 394.5594005 257.3827544 396.17358398 250.02832031 C397.62751958 243.46487302 399.33690039 237.01446057 401.19335938 230.55493164 C402.89314945 224.57014239 404.25052935 218.54081222 405.55322266 212.45898438 C406.52072211 207.99779092 407.63440994 203.62838259 408.9375 199.25 C410.66781751 193.39923768 412.05500048 187.51552073 413.375 181.5625 C416.48992364 167.55384107 420.02518416 153.64745646 424.0625 139.875 C425.57563514 134.65560268 426.88576837 129.41405941 428.125 124.125 C430.41794527 114.35420153 432.81471657 104.61108304 435.25 94.875 C435.45029816 94.07381744 435.65059631 93.27263489 435.85696411 92.44717407 C439.00841607 79.85227942 442.19802664 67.26711147 445.39453125 54.68359375 C445.58601368 53.92966087 445.77749611 53.175728 445.97478104 52.39894867 C447.91629806 44.75466257 449.85882373 37.11063676 451.80567646 29.46770763 C452.54173338 26.57725199 453.27680749 23.68654696 454.01169395 20.79579353 C454.35746805 19.43669956 454.70370286 18.0777227 455.05042458 16.71887016 C455.52964384 14.84062492 456.00716961 12.96194784 456.48461914 11.08325195 C456.75423965 10.0247554 457.02386017 8.96625885 457.301651 7.87568665 C457.93541212 5.26596229 458.47331536 2.63342319 459 0 C520.05 0 581.1 0 644 0 C644 192.72 644 385.44 644 584 C607.7 584 571.4 584 534 584 C533.93163027 542.93421073 533.93163027 542.93421073 533.94628906 530.31591797 C533.94780181 529.01179289 533.94780181 529.01179289 533.94934511 527.68132186 C533.9886104 499.07205465 534.37511879 470.46697506 534.77392286 441.8608644 C534.89033291 433.4990475 535.00118673 425.13715891 535.11191952 416.77526522 C535.29727634 402.78626497 535.48606023 388.7973141 535.67728984 374.808393 C535.94178 355.45362684 536.19472963 336.09872749 536.44304228 316.74374765 C536.58434928 305.73596048 536.72801776 294.72820405 536.87205505 283.72045231 C536.89348626 282.08209804 536.9149147 280.44374374 536.93634033 278.8053894 C536.95212796 277.59828364 536.95212796 277.59828364 536.96823454 276.3667919 C537.04104127 270.79126244 537.11264283 265.21571827 537.18377686 259.64016724 C537.27040008 252.85418709 537.35921586 246.06823939 537.45059067 239.28232151 C537.49676552 235.84939341 537.5417788 232.41646213 537.5847683 228.9834919 C537.7713096 214.13623774 538.08672293 199.301173 538.57708549 184.46135271 C538.96869912 172.58702174 539.20372228 160.71970712 539.31640625 148.83984375 C539.337158 146.89717862 539.35815619 144.95451611 539.37937927 143.01185608 C539.42251219 139.00198127 539.46351352 134.99209316 539.50268555 130.98217773 C539.55195432 125.9450561 539.60560239 120.907993 539.66065407 115.87093163 C539.90683194 93.24658694 540.07421177 70.62578112 540 48 C539.76691635 48.91285767 539.5338327 49.82571533 539.29368591 50.76623535 C533.66255884 72.81389504 527.89803611 94.82393656 522.05029297 116.81518555 C518.96531333 128.43584021 515.94423129 140.06813436 513.06672668 151.74211121 C511.40715747 158.45819949 509.6357351 165.13907406 507.8125 171.8125 C504.37324003 184.45970465 501.14154452 197.15601157 497.91467285 209.85873413 C494.42040979 223.60002416 490.80506473 237.30071005 486.99267578 250.95727539 C485.2223363 257.33651446 483.5683731 263.72180208 482.08203125 270.171875 C480.0452479 279.00153441 477.71416373 287.74261374 475.34075928 296.48696899 C474.11165653 301.01699922 472.89271482 305.54976868 471.671875 310.08203125 C471.43455658 310.96205307 471.19723816 311.84207489 470.95272827 312.74876404 C466.38518485 329.68902565 462.0737914 346.68624688 457.84082031 363.71252441 C455.60593701 372.69407714 453.34427726 381.65736272 450.80566406 390.55883789 C448.99460909 396.92904694 447.3390366 403.33678373 445.6875 409.75 C443.23724732 419.26380404 440.73518255 428.7618376 438.1875 438.25 C434.86062496 450.65327259 431.66559954 463.08737657 428.49612427 475.53164673 C424.92695957 489.53040637 421.21206286 503.48595067 417.39892578 517.42016602 C415.17650658 525.55338923 413.04786681 533.7019973 411.02246094 541.88647461 C409.35958706 548.60022162 407.63054337 555.2972271 405.90795898 561.99584961 C405.30140652 564.35565952 404.69658821 566.71591007 404.09179688 569.07617188 C403.7032293 570.58856847 403.31456138 572.10093928 402.92578125 573.61328125 C402.74662674 574.3131868 402.56747223 575.01309235 402.38288879 575.73420715 C401.66397189 578.52411572 400.9114706 581.2655882 400 584 C348.52 584 297.04 584 244 584 C241.61715583 576.8514675 239.42149148 570.1477022 237.8125 562.875 C235.75253552 553.92568021 233.44497227 545.0557237 231.0625 536.1875 C226.0900894 517.65905705 221.48062727 499.04074252 216.87329102 480.41870117 C214.32230977 470.12972871 211.76669973 459.86609293 208.77612305 449.69482422 C207.72649174 446.05033528 206.88323053 442.39024281 206.0625 438.6875 C204.60918462 432.29087053 202.86421205 426.03482269 200.95802307 419.76025391 C199.36807247 414.4403845 198.02851327 409.09197221 196.77734375 403.68359375 C193.9672369 391.72106149 190.9526464 379.81275217 187.91601562 367.90600586 C186.99863629 364.30715021 186.08511313 360.70733033 185.171875 357.10742188 C182.44876441 346.39946623 179.68788855 335.70995159 176.6912384 325.07505798 C174.71457103 318.04344325 172.93671101 310.96643305 171.1875 303.875 C170.8489071 302.51108097 170.51003266 301.1472318 170.17089844 299.78344727 C169.46808838 296.95601299 168.76646117 294.12828974 168.06591797 291.30029297 C166.46999496 284.85924373 164.86640375 278.42011167 163.25967407 271.98175049 C162.76858456 270.01204078 162.27915699 268.04191694 161.78979492 266.07177734 C159.92046068 258.57383894 157.97575044 251.09989465 155.97314453 243.63647461 C154.47438644 238.03587206 153.01657819 232.42484139 151.5625 226.8125 C151.11028076 225.06948608 151.11028076 225.06948608 150.64892578 223.29125977 C148.6706255 215.64677511 146.72356255 207.99527063 144.86157227 200.3215332 C143.78270238 195.93339405 142.6063243 191.58000231 141.37773132 187.23127747 C137.51318242 173.52967781 134.14493349 159.70729904 130.73217773 145.88769531 C127.70283496 133.63453533 124.60605441 121.41287623 121.24398804 109.24653625 C118.49132153 99.24121012 115.97785464 89.17750233 113.4753418 79.10717773 C112.6732063 75.87999299 111.86712662 72.65381094 111.06054688 69.42773438 C110.54404597 67.3568269 110.02776143 65.28586545 109.51171875 63.21484375 C109.27321701 62.25972397 109.03471527 61.30460419 108.78898621 60.32054138 C108.45777519 58.98612755 108.45777519 58.98612755 108.11987305 57.62475586 C107.92701218 56.84950058 107.73415131 56.0742453 107.53544617 55.27549744 C106.96704034 52.8599306 106.47372825 50.43574756 106 48 C105.34 48 104.68 48 104 48 C104.2411871 69.85003215 104.48461475 91.7000384 104.73049068 113.55001831 C104.84468646 123.70244273 104.9582218 133.85487363 105.07006836 144.00732422 C105.66803644 199.60935257 105.66803644 199.60935257 106.56605339 255.20710182 C107.16704861 286.66349165 107.54410186 318.12296311 107.93628693 349.58251953 C107.98990623 353.88315589 108.04392076 358.18378717 108.09805429 362.48441708 C108.65654426 406.8629471 109.18423016 451.24161292 109.59375 495.62179947 C109.62444157 498.93963243 109.65568863 502.25745981 109.68701172 505.57528687 C109.73566281 510.7619526 109.78207539 515.94863403 109.82670212 521.13533592 C109.84252294 522.95837015 109.85879241 524.78140058 109.87565994 526.60442543 C110.05074067 545.736881 110 564.86547081 110 584 C73.7 584 37.4 584 0 584 C0 391.28 0 198.56 0 0 Z " fill="#010101" transform="translate(373,155)"/>
<path d="M0 0 C0 0.66 0 1.32 0 2 C0.5775 2.226875 1.155 2.45375 1.75 2.6875 C4.62971224 4.36733214 6.04166504 6.30728943 8 9 C8.639375 9.825 9.27875 10.65 9.9375 11.5 C21.63415638 29.50548285 22.07747449 52.63827207 18 73 C14.91385666 86.93874013 8.00169596 100.42469286 -4.08984375 108.39453125 C-23.19768467 118.93590389 -49.1897992 118.49991776 -69.9375 113.2578125 C-78.2079935 110.66179648 -85.26186199 105.4921882 -91 99 C-91 98.34 -91 97.68 -91 97 C-91.66 97 -92.32 97 -93 97 C-103.60131693 74.77257217 -109.11359843 50.31806535 -101.19921875 26.01953125 C-97.44353563 16.56303924 -92.71669444 5.81112963 -84 0 C-83.46117187 -0.39703125 -82.92234375 -0.7940625 -82.3671875 -1.203125 C-60.53286204 -16.36838871 -21.72086437 -13.80563413 0 0 Z " fill="#FD4237" transform="translate(1195,623)"/>
<path d="M0 0 C474.21 0 948.42 0 1437 0 C1437 1.32 1437 2.64 1437 4 C962.79 4 488.58 4 0 4 C0 2.68 0 1.36 0 0 Z " fill="#0E0E0E" transform="translate(0,898)"/>
<path d="M0 0 C9.14221866 8.28997794 12.69836171 24.42895521 13.31640625 36.53125 C13.74487779 54.05387301 11.01365588 70.75964033 2 86 C1.01 86.495 1.01 86.495 0 87 C1.11074679 83.39007294 2.4411187 80.02695276 4.0625 76.625 C6.01064066 72.35936858 6.66090894 68.66250203 7 64 C7.66 64 8.32 64 9 64 C9 50.8 9 37.6 9 24 C8.34 23.67 7.68 23.34 7 23 C6.64159778 20.67038557 6.31151288 18.33634657 6 16 C5.02450239 13.18137797 5.02450239 13.18137797 4 11 C3.34 11 2.68 11 2 11 C0.80712589 7.12315913 0 4.08378077 0 0 Z " fill="#EB4749" transform="translate(1202,632)"/>
<path d="M0 0 C0.495 0.99 0.495 0.99 1 2 C-1.71040389 6.63391633 -3.40992091 9.17906577 -8.625 10.8125 C-9.38039063 11.00457031 -10.13578125 11.19664062 -10.9140625 11.39453125 C-13.2758988 11.96670739 -13.2758988 11.96670739 -16 14 C-18.48046875 14.4140625 -18.48046875 14.4140625 -21.1875 14.625 C-22.08855469 14.69976563 -22.98960938 14.77453125 -23.91796875 14.8515625 C-24.60503906 14.90054688 -25.29210938 14.94953125 -26 15 C-26 15.33 -26 15.66 -26 16 C-29.98372129 15.88068785 -33.96725422 15.7563839 -37.95068359 15.62768555 C-39.96313601 15.56367259 -41.9757088 15.5034803 -43.98828125 15.44335938 C-50.39443625 15.23411311 -56.65368061 14.88376116 -63 14 C-64.010625 14.061875 -65.02125 14.12375 -66.0625 14.1875 C-70.20282614 13.92322386 -72.52484003 12.22410238 -76 10 C-76 9.34 -76 8.68 -76 8 C-75.24976563 8.20496094 -74.49953125 8.40992188 -73.7265625 8.62109375 C-72.70304687 8.89050781 -71.67953125 9.15992188 -70.625 9.4375 C-69.62726563 9.70433594 -68.62953125 9.97117187 -67.6015625 10.24609375 C-59.26391675 11.9913927 -50.92988175 12.15876693 -42.4375 12.125 C-40.97280273 12.13080078 -40.97280273 12.13080078 -39.47851562 12.13671875 C-30.38134174 12.12454862 -22.33941941 11.54430252 -13.8125 8.25 C-13.14025391 8.01023437 -12.46800781 7.77046875 -11.77539062 7.5234375 C-7.03367657 5.7320207 -3.73992771 3.4200272 0 0 Z " fill="#FCE4D7" transform="translate(1196,726)"/>
<path d="M0 0 C-12.39953578 6.53793705 -23.2590952 8.19679722 -37.1875 8.1875 C-38.19111572 8.18814453 -39.19473145 8.18878906 -40.22875977 8.18945312 C-47.97501041 8.13465209 -55.38262411 7.47858943 -63 6 C-63 5.67 -63 5.34 -63 5 C-61.72358643 5.00523682 -60.44717285 5.01047363 -59.13208008 5.01586914 C-54.38908593 5.03399149 -49.64609483 5.04545849 -44.90307617 5.05493164 C-42.85163864 5.0599553 -40.80020468 5.06677537 -38.7487793 5.07543945 C-35.7973543 5.08759112 -32.84597673 5.09324804 -29.89453125 5.09765625 C-28.97976517 5.10281754 -28.06499908 5.10797882 -27.12251282 5.11329651 C-22.95115808 5.11366265 -19.06620692 5.06733315 -15 4 C-15 3.01 -15 2.02 -15 1 C-13.0641649 0.63684334 -11.12624752 0.28477269 -9.1875 -0.0625 C-8.10855469 -0.25972656 -7.02960938 -0.45695313 -5.91796875 -0.66015625 C-3 -1 -3 -1 0 0 Z " fill="#D55A59" transform="translate(1191,731)"/>
<path d="M0 0 C0.75505829 0.01649597 1.51011658 0.03299194 2.28805542 0.04998779 C3.89035042 0.08752561 5.49257719 0.12807671 7.09472656 0.17138672 C9.52400977 0.23358948 11.9530922 0.27538371 14.3828125 0.31640625 C15.94274057 0.35550521 17.50263844 0.39583211 19.0625 0.4375 C19.78051788 0.44702698 20.49853577 0.45655396 21.23831177 0.46636963 C26.50592559 0.64119454 30.57191204 1.93648258 35.4296875 3.984375 C35.4296875 4.314375 35.4296875 4.644375 35.4296875 4.984375 C34.87603516 4.91581299 34.32238281 4.84725098 33.75195312 4.77661133 C14.97387542 2.65705668 -4.3871383 2.46536278 -22.5703125 7.984375 C-22.5703125 7.324375 -22.5703125 6.664375 -22.5703125 5.984375 C-21.15553115 5.33442203 -19.73839763 4.68958778 -18.3203125 4.046875 C-17.53140625 3.68722656 -16.7425 3.32757812 -15.9296875 2.95703125 C-13.80816274 2.08242916 -11.79592078 1.51224363 -9.5703125 0.984375 C-6.51230203 -0.54463024 -3.34741984 -0.08079645 0 0 Z " fill="#FBEADE" transform="translate(1142.5703125,610.015625)"/>
<path d="M0 0 C0.66 0 1.32 0 2 0 C0.25775412 8.17515376 0.25775412 8.17515376 -0.76123047 11.43603516 C-3.08978716 18.89171545 -3.42137227 25.7890199 -3.3125 33.5625 C-3.31572266 34.71685547 -3.31894531 35.87121094 -3.32226562 37.06054688 C-3.26541698 46.17183427 -1.84221585 54.37759835 0.625 63.125 C0.88539062 64.05570313 1.14578125 64.98640625 1.4140625 65.9453125 C1.60742188 66.62335938 1.80078125 67.30140625 2 68 C0.5 66.625 0.5 66.625 -1 65 C-1 64.34 -1 63.68 -1 63 C-1.99 63 -2.98 63 -4 63 C-5.18087716 60.63824568 -5.13286018 59.20333221 -5.14526367 56.56958008 C-5.15164352 55.65134964 -5.15802338 54.7331192 -5.16459656 53.7870636 C-5.16570938 52.79127792 -5.1668222 51.79549225 -5.16796875 50.76953125 C-5.17129715 49.74574875 -5.17462555 48.72196625 -5.17805481 47.66716003 C-5.18312559 45.49580332 -5.18546309 43.3244388 -5.18530273 41.15307617 C-5.18747964 37.84345461 -5.20560734 34.53417149 -5.22460938 31.22460938 C-5.22754524 29.11458447 -5.22952874 27.00455799 -5.23046875 24.89453125 C-5.23765427 23.90886673 -5.24483978 22.92320221 -5.25224304 21.90766907 C-5.23455811 16.53894661 -4.77499566 12.07700642 -3 7 C-2.34 7 -1.68 7 -1 7 C-0.67 4.69 -0.34 2.38 0 0 Z " fill="#F8CCC3" transform="translate(1095,641)"/>
<path d="M0 0 C0.33 0 0.66 0 1 0 C0.9278125 0.64839844 0.855625 1.29679688 0.78125 1.96484375 C0.02719218 9.93481599 -0.14099948 17.87284118 -0.1875 25.875 C-0.20039062 26.95644287 -0.21328125 28.03788574 -0.2265625 29.15209961 C-0.23368063 34.89687281 0.2219985 39.55443461 2 45 C2.1953125 47.65234375 2.1953125 47.65234375 2.125 49.9375 C2.10695313 50.70964844 2.08890625 51.48179687 2.0703125 52.27734375 C2.04710937 52.84582031 2.02390625 53.41429687 2 54 C-4.79031864 47.20968136 -3.21099728 33.54599294 -3.25 24.6875 C-3.270625 23.52798828 -3.29125 22.36847656 -3.3125 21.17382812 C-3.3463637 13.64338815 -2.40223612 7.1423951 0 0 Z " fill="#D8594D" transform="translate(1094,650)"/>
<path d="M0 0 C8.63437015 7.82947124 12.38935234 22.98805113 13.16748047 34.47167969 C13.3271889 39.65575571 13.21586594 44.81921754 13 50 C12.67 50 12.34 50 12 50 C11.95101563 48.95199219 11.90203125 47.90398438 11.8515625 46.82421875 C11.77651857 45.44528646 11.70097143 44.0663815 11.625 42.6875 C11.5940625 41.99720703 11.563125 41.30691406 11.53125 40.59570312 C11.31875081 36.93009211 11.08066139 35.12099208 9 32 C8.74239721 29.30547479 8.91099947 26.71451625 9 24 C8.34 23.67 7.68 23.34 7 23 C6.64159778 20.67038557 6.31151288 18.33634657 6 16 C5.02450239 13.18137797 5.02450239 13.18137797 4 11 C3.34 11 2.68 11 2 11 C0.80712589 7.12315913 0 4.08378077 0 0 Z " fill="#D8605A" transform="translate(1202,632)"/>
<path d="M0 0 C0.66952698 -0.00394775 1.33905396 -0.00789551 2.02886963 -0.01196289 C12.41374571 -0.0406306 21.79861442 0.79634925 31.625 4.3125 C31.625 4.6425 31.625 4.9725 31.625 5.3125 C26.50629271 5.61360043 22.29258056 5.07832 17.3125 3.8125 C9.32668854 1.85301848 2.18302141 1.87895891 -5.91796875 3.08984375 C-12.03617181 3.64427551 -18.23757324 3.379535 -24.375 3.3125 C-17.09887964 -0.88526175 -8.12203232 0.04374702 0 0 Z " fill="#D95A57" transform="translate(1152.375,612.6875)"/>
<path d="M0 0 C0.66 0 1.32 0 2 0 C2 0.99 2 1.98 2 3 C2.66 3 3.32 3 4 3 C4.33 2.01 4.66 1.02 5 0 C7.68057639 8.04172918 7.18631703 16.89752341 7.18530273 25.27661133 C7.18751445 27.32588738 7.20580505 29.37464504 7.22460938 31.42382812 C7.22750977 33.37385742 7.22750977 33.37385742 7.23046875 35.36328125 C7.23457764 36.54188721 7.23868652 37.72049316 7.24291992 38.93481445 C7.0101676 41.87170428 6.53744661 43.52721308 5 46 C5.02618408 45.31711914 5.05236816 44.63423828 5.0793457 43.93066406 C5.59210312 28.43111064 4.68244234 14.81658541 0 0 Z " fill="#FBE0D6" transform="translate(1209,644)"/>
<path d="M0 0 C0.33 0 0.66 0 1 0 C1 10.56 1 21.12 1 32 C0.67 32 0.34 32 0 32 C-0.33 27.38 -0.66 22.76 -1 18 C-1.99 18.33 -2.98 18.66 -4 19 C-3.67 19.99 -3.34 20.98 -3 22 C-3.99 22 -4.98 22 -6 22 C-5.37798054 19.45757096 -4.75248241 16.91608125 -4.125 14.375 C-3.95097656 13.66214844 -3.77695312 12.94929687 -3.59765625 12.21484375 C-2.57145662 8.07203784 -1.41209271 4.03273322 0 0 Z " fill="#C4C4C4" transform="translate(913,202)"/>
<path d="M0 0 C0.75539063 -0.020625 1.51078125 -0.04125 2.2890625 -0.0625 C7.83827751 -0.10063893 11.90472039 1.04976562 17 3.25 C17 3.58 17 3.91 17 4.25 C16.13689209 4.15150757 16.13689209 4.15150757 15.25634766 4.05102539 C8.30130169 3.30156516 1.36372454 2.9464989 -5.625 2.6875 C-6.72457031 2.64431641 -7.82414062 2.60113281 -8.95703125 2.55664062 C-11.63792882 2.45173594 -14.31890001 2.34957274 -17 2.25 C-17 1.92 -17 1.59 -17 1.25 C-11.3055734 0.44760352 -5.74880648 0.039241 0 0 Z " fill="#FBD6CE" transform="translate(1161,610.75)"/>
<path d="M0 0 C1.98 0 3.96 0 6 0 C5.67 2.64 5.34 5.28 5 8 C5.99 8.33 6.98 8.66 8 9 C8 11.31 8 13.62 8 16 C7.34 16 6.68 16 6 16 C4.99303432 13.89915791 3.9946411 11.79420511 3 9.6875 C2.443125 8.51574219 1.88625 7.34398437 1.3125 6.13671875 C0 3 0 3 0 0 Z " fill="#E74A41" transform="translate(1096,704)"/>
<path d="M0 0 C0.33 1.32 0.66 2.64 1 4 C0.34 4 -0.32 4 -1 4 C-1.309375 4.94875 -1.61875 5.8975 -1.9375 6.875 C-3 10 -3 10 -4 12 C-4.66 12 -5.32 12 -6 12 C-6.2475 13.051875 -6.495 14.10375 -6.75 15.1875 C-7.76700786 18.8133541 -9.45373429 21.19910772 -12 24 C-11.15077844 15.50778444 -6.03732801 6.03732801 0 0 Z " fill="#DE605A" transform="translate(1107,626)"/>
<path d="M0 0 C0.639375 0.680625 1.27875 1.36125 1.9375 2.0625 C5.62709757 5.77342473 9.83346374 8.8501349 14 12 C12.1953125 13.06640625 12.1953125 13.06640625 10 14 C6.875 12.9375 6.875 12.9375 4 11 C2.75 8.4375 2.75 8.4375 2 6 C1.34 5.34 0.68 4.68 0 4 C0 2.68 0 1.36 0 0 Z " fill="#F9DED6" transform="translate(1103,720)"/>
<path d="M0 0 C-5.9435884 3.30199356 -11.29119838 4.95518663 -18 6 C-17.67 5.34 -17.34 4.68 -17 4 C-16.34 4 -15.68 4 -15 4 C-15 3.01 -15 2.02 -15 1 C-13.0641649 0.63684334 -11.12624752 0.28477269 -9.1875 -0.0625 C-8.10855469 -0.25972656 -7.02960938 -0.45695313 -5.91796875 -0.66015625 C-3 -1 -3 -1 0 0 Z " fill="#DE544A" transform="translate(1191,731)"/>
<path d="M0 0 C2.16601445 6.49804335 -2.22318021 13.73075984 -5.0625 19.5625 C-7.71282923 24.85641461 -7.71282923 24.85641461 -10 26 C-8.88925321 22.39007294 -7.5588813 19.02695276 -5.9375 15.625 C-3.98935934 11.35936858 -3.33909106 7.66250203 -3 3 C-2.34 3 -1.68 3 -1 3 C-0.67 2.01 -0.34 1.02 0 0 Z " fill="#D85E58" transform="translate(1212,693)"/>
<path d="M0 0 C-1.36125 1.0209375 -1.36125 1.0209375 -2.75 2.0625 C-6.22606221 4.92901576 -7.96564882 8.00954191 -10 12 C-11.47006623 7.58980132 -10.43537323 4.30611969 -9 0 C-3.375 -1.125 -3.375 -1.125 0 0 Z " fill="#F7E8DF" transform="translate(1111,624)"/>
<path d="M0 0 C4.03321763 1.21934486 7.54269479 2.55954927 11 5 C11 5.66 11 6.32 11 7 C11.598125 7.268125 12.19625 7.53625 12.8125 7.8125 C14.97224808 8.98493467 16.35790256 10.19369282 18 12 C17.67 12.66 17.34 13.32 17 14 C15.02 13.01 13.04 12.02 11 11 C11 10.34 11 9.68 11 9 C10.34 9 9.68 9 9 9 C9 8.34 9 7.68 9 7 C6.69 6.01 4.38 5.02 2 4 C2 3.34 2 2.68 2 2 C1.34 2 0.68 2 0 2 C0 1.34 0 0.68 0 0 Z " fill="#DD5959" transform="translate(1184,618)"/>
<path d="M0 0 C0.33 0.66 0.66 1.32 1 2 C0.21366078 3.14949588 -0.57926258 4.29448989 -1.375 5.4375 C-1.81585937 6.07558594 -2.25671875 6.71367188 -2.7109375 7.37109375 C-4 9 -4 9 -6 10 C-7.70702735 10.06996014 -9.41668003 10.08440154 -11.125 10.0625 C-12.03507812 10.05347656 -12.94515625 10.04445313 -13.8828125 10.03515625 C-14.58148437 10.02355469 -15.28015625 10.01195312 -16 10 C-13.68635707 8.45757138 -11.61395515 7.2968427 -9.125 6.125 C-5.71048676 4.44924258 -2.8753625 2.51594218 0 0 Z " fill="#FBDACD" transform="translate(1196,726)"/>
<path d="M0 0 C0.66 0 1.32 0 2 0 C0.38911645 7.78593716 -1.76543688 15.37428218 -4 23 C-4.33 23 -4.66 23 -5 23 C-5.2358396 17.22192976 -4.86783046 12.48675196 -3 7 C-2.34 7 -1.68 7 -1 7 C-0.67 4.69 -0.34 2.38 0 0 Z " fill="#FDDDD7" transform="translate(1095,641)"/>
<path d="M0 0 C0 0.66 0 1.32 0 2 C-0.60328125 2.18175781 -1.2065625 2.36351562 -1.828125 2.55078125 C-6.13046712 3.90393724 -9.45850489 5.13956164 -13 8 C-13.99 8 -14.98 8 -16 8 C-16.33 8.99 -16.66 9.98 -17 11 C-17.99 10.34 -18.98 9.68 -20 9 C-18.27430361 7.86968397 -16.54428261 6.74596893 -14.8125 5.625 C-13.84957031 4.99851562 -12.88664062 4.37203125 -11.89453125 3.7265625 C-7.66735689 1.20509007 -4.96418998 0 0 0 Z " fill="#D8665F" transform="translate(1128,616)"/>
<path d="M0 0 C2.31 0 4.62 0 7 0 C5.65365543 4.4062186 3.80625626 6.43077702 0 9 C-0.66 9 -1.32 9 -2 9 C-2 8.34 -2 7.68 -2 7 C-1.34 7 -0.68 7 0 7 C0 4.69 0 2.38 0 0 Z " fill="#E0504A" transform="translate(1194,720)"/>
<path d="M0 0 C0 0.99 0 1.98 0 3 C-0.66 3 -1.32 3 -2 3 C-2 3.66 -2 4.32 -2 5 C-1.01 5 -0.02 5 1 5 C0.67 5.99 0.34 6.98 0 8 C-1.32 7.34 -2.64 6.68 -4 6 C-4 5.34 -4 4.68 -4 4 C-6.475 3.01 -6.475 3.01 -9 2 C-9 1.67 -9 1.34 -9 1 C-5.94152152 0.45627049 -3.11227195 0 0 0 Z " fill="#FDE3DF" transform="translate(1199,619)"/>
<path d="M0 0 C4.97963801 4.81900452 4.97963801 4.81900452 5.0625 9.625 C5.041875 10.73875 5.02125 11.8525 5 13 C4.67 12.34 4.34 11.68 4 11 C3.34 11 2.68 11 2 11 C0.80712589 7.12315913 0 4.08378077 0 0 Z " fill="#E25A56" transform="translate(1202,632)"/>
<path d="M0 0 C0.66 0.33 1.32 0.66 2 1 C2 1.99 2 2.98 2 4 C2.66 4 3.32 4 4 4 C4.33 5.65 4.66 7.3 5 9 C4.01 9 3.02 9 2 9 C0.61328125 7.25 0.61328125 7.25 -0.6875 5 C-1.12449219 4.2575 -1.56148437 3.515 -2.01171875 2.75 C-2.33785156 2.1725 -2.66398437 1.595 -3 1 C-2.01 0.67 -1.02 0.34 0 0 Z " fill="#FAECE0" transform="translate(1202,626)"/>
<path d="M0 0 C1.5 1.375 1.5 1.375 3 3 C3 3.66 3 4.32 3 5 C3.66 5 4.32 5 5 5 C5.66 7.31 6.32 9.62 7 12 C5.5 10.625 5.5 10.625 4 9 C4 8.34 4 7.68 4 7 C3.01 7 2.02 7 1 7 C0.67 4.69 0.34 2.38 0 0 Z " fill="#F9E2DA" transform="translate(1090,697)"/>
<path d="M0 0 C3.63 0 7.26 0 11 0 C10.67 0.99 10.34 1.98 10 3 C5.06071112 3.3367697 4.21507278 3.16130459 0 0 Z " fill="#F2FEF8" transform="translate(1168,740)"/>
<path d="M0 0 C3 2 3 2 3.8125 5.3125 C3.99782057 8.95713794 3.64596835 10.80488497 2 14 C1.67 14 1.34 14 1 14 C1.01160156 13.32453125 1.02320313 12.6490625 1.03515625 11.953125 C1.04417969 11.06109375 1.05320312 10.1690625 1.0625 9.25 C1.07990234 7.92742188 1.07990234 7.92742188 1.09765625 6.578125 C1.00826198 4.2181162 0.66912821 2.25501476 0 0 Z " fill="#F54940" transform="translate(1199,630)"/>
<path d="M0 0 C1.43836751 0.11458693 2.87570966 0.24209116 4.3125 0.375 C5.51326172 0.47941406 5.51326172 0.47941406 6.73828125 0.5859375 C9 1 9 1 12 3 C12 3.66 12 4.32 12 5 C10.56068883 4.54738642 9.12361001 4.08767021 7.6875 3.625 C6.88699219 3.36976563 6.08648438 3.11453125 5.26171875 2.8515625 C3 2 3 2 0 0 Z " fill="#FCDACD" transform="translate(1178,615)"/>
<path d="M0 0 C0.66 0 1.32 0 2 0 C2.25 3.3125 2.25 3.3125 2 7 C0.68 7.99 -0.64 8.98 -2 10 C-1.34 6.7 -0.68 3.4 0 0 Z " fill="#F2F2F2" transform="translate(911,208)"/>
<path d="M0 0 C7.425 0.99 7.425 0.99 15 2 C15 2.33 15 2.66 15 3 C9.06 3.495 9.06 3.495 3 4 C3 3.34 3 2.68 3 2 C2.01 2 1.02 2 0 2 C0 1.34 0 0.68 0 0 Z " fill="#FCD7D1" transform="translate(1127,736)"/>
<path d="M0 0 C-0.33 0.66 -0.66 1.32 -1 2 C-3.06640625 2.4140625 -3.06640625 2.4140625 -5.5625 2.625 C-6.38878906 2.69976563 -7.21507812 2.77453125 -8.06640625 2.8515625 C-9.02353516 2.92503906 -9.02353516 2.92503906 -10 3 C-4.375 -1.3125 -4.375 -1.3125 0 0 Z " fill="#FAF8EC" transform="translate(1184,737)"/>
<path d="M0 0 C0.99 0.33 1.98 0.66 3 1 C2.01 1.66 1.02 2.32 0 3 C0 2.01 0 1.02 0 0 Z M-4 2 C-2.68 2.33 -1.36 2.66 0 3 C-0.33 3.99 -0.66 4.98 -1 6 C-1.99 6 -2.98 6 -4 6 C-4 4.68 -4 3.36 -4 2 Z " fill="#E9433E" transform="translate(1112,624)"/>
<path d="M0 0 C2.31 0 4.62 0 7 0 C4.31158141 2.25245881 2.35358125 3.88213958 -1 5 C-0.67 3.35 -0.34 1.7 0 0 Z " fill="#FCDEDF" transform="translate(1112,618)"/>
<path d="M0 0 C0.66 0 1.32 0 2 0 C4.36503039 2.99106784 5.91553181 5.02861582 6.25 8.875 C6.1675 9.57625 6.085 10.2775 6 11 C3.13546142 7.58983503 1.65296434 4.09305456 0 0 Z " fill="#DE6764" transform="translate(1097,709)"/>
<path d="M0 0 C1.25541557 3.76624671 0.37061958 5.37188934 -1 9 C-1.66 8.67 -2.32 8.34 -3 8 C-3 6.35 -3 4.7 -3 3 C-2.34 3 -1.68 3 -1 3 C-0.67 2.01 -0.34 1.02 0 0 Z " fill="#DB574B" transform="translate(1212,693)"/>
<path d="M0 0 C0.99 0.33 1.98 0.66 3 1 C2.67 2.98 2.34 4.96 2 7 C1.34 7 0.68 7 0 7 C-0.66 5.02 -1.32 3.04 -2 1 C-1.34 0.67 -0.68 0.34 0 0 Z " fill="#101010" transform="translate(867,365)"/>
</svg>
