<?xml version="1.0" encoding="UTF-8"?>
<svg version="1.1" xmlns="http://www.w3.org/2000/svg" width="48" height="48">
<path d="M0 0 C15.84 0 31.68 0 48 0 C48 15.84 48 31.68 48 48 C32.16 48 16.32 48 0 48 C0 32.16 0 16.32 0 0 Z " fill="#FBFBFB" transform="translate(0,0)"/>
<path d="M0 0 C2.31 0 4.62 0 7 0 C8.32 8.25 9.64 16.5 11 25 C11.45375 22.545625 11.9075 20.09125 12.375 17.5625 C13.47042069 11.6794641 14.64657861 5.83012292 16 0 C17.98 0 19.96 0 22 0 C22 10.56 22 21.12 22 32 C20.68 32 19.36 32 18 32 C17.67 26.39 17.34 20.78 17 15 C16.01 20.61 15.02 26.22 14 32 C12.35 32 10.7 32 9 32 C7.43614918 30.43614918 7.55876578 28.6888591 7.24609375 26.52734375 C7.1267749 25.71773193 7.00745605 24.90812012 6.88452148 24.07397461 C6.73700439 23.03893799 6.5894873 22.00390137 6.4375 20.9375 C5.963125 17.658125 5.48875 14.37875 5 11 C4.67 17.93 4.34 24.86 4 32 C2.68 32 1.36 32 0 32 C0 21.44 0 10.88 0 0 Z " fill="#181818" transform="translate(12,8)"/>
<path d="M0 0 C2.31 0 4.62 0 7 0 C6.67 1.32 6.34 2.64 6 4 C5.34 4 4.68 4 4 4 C4 13.24 4 22.48 4 32 C2.68 32 1.36 32 0 32 C0 21.44 0 10.88 0 0 Z " fill="#1C1C1C" transform="translate(12,8)"/>
<path d="M0 0 C1.98295332 2.97442999 2.37271607 4.25074647 2.8515625 7.66796875 C2.98046875 8.56064453 3.109375 9.45332031 3.2421875 10.37304688 C3.43167969 11.76620117 3.43167969 11.76620117 3.625 13.1875 C3.7590625 14.12787109 3.893125 15.06824219 4.03125 16.03710938 C4.3610088 18.35719808 4.68364451 20.67805214 5 23 C6.32 22.67 7.64 22.34 9 22 C8.67 24.64 8.34 27.28 8 30 C6.33388095 30.042721 4.66617115 30.04063832 3 30 C0.65459254 27.65459254 0.90456435 22.54388637 0.4375 19.375 C0.29892578 18.48425781 0.16035156 17.59351562 0.01757812 16.67578125 C-1.90550595 3.8110119 -1.90550595 3.8110119 0 0 Z " fill="#121212" transform="translate(18,10)"/>
<path d="M0 0 C1.32 0.33 2.64 0.66 4 1 C3.67 2.65 3.34 4.3 3 6 C2.01 6 1.02 6 0 6 C0 4.02 0 2.04 0 0 Z " fill="#DC5F57" transform="translate(37,33)"/>
</svg>
